<svg width="28" height="28" viewBox="0 0 28 28" fill="none" xmlns="http://www.w3.org/2000/svg">
<path d="M14 28C19.7995 28 24.5 24.5 24.5 18.375C24.5 15.75 23.625 11.375 20.125 7.875C20.5625 10.5 17.9375 11.375 17.9375 11.375C19.25 7 15.75 0.875 10.5 0C11.1247 3.5 11.375 7 7 10.5C4.8125 12.25 3.5 15.2757 3.5 18.375C3.5 24.5 8.2005 28 14 28ZM14 26.25C11.1003 26.25 8.75 24.5 8.75 21.4375C8.75 20.125 9.1875 17.9375 10.9375 16.1875C10.7188 17.5 12.25 18.375 12.25 18.375C11.5938 16.1875 13.125 12.6875 15.75 12.25C15.4367 14 15.3125 15.75 17.5 17.5C18.5938 18.375 19.25 19.887 19.25 21.4375C19.25 24.5 16.8997 26.25 14 26.25Z" fill="#E33322"/>
</svg>
